<svg id="Layer_1" data-name="Layer 1" xmlns="http://www.w3.org/2000/svg" viewBox="0 0 471.62 376.4"><defs><style>.cls-1{fill:#032952;}</style></defs><path class="cls-1" d="M115.11,145.69,98.37,85.78H91v59.91H71.55V0h32.33c14.65,0,26.82,8.56,26.82,30.43v23.4c0,14.64-3.42,23.2-14.07,27.77l17.88,64.09ZM111.3,32.9c0-10.65-3.42-14.45-10.65-14.45H91V67.33h9.7c7.23,0,10.65-3.8,10.65-14.45Z"/><path class="cls-1" d="M175.45,145.69V95.1L151.3,0h19.59l14.26,66L199.8,0h19.59L194.85,94.91v50.78Z"/><path class="cls-1" d="M278.88,145.69l-3.8-32.33h-21.5l-3.8,32.33h-19.4L250,0H278.5l19.78,145.69ZM264.24,22.25l-8.56,72.66h17.11Z"/><path class="cls-1" d="M367.93,145.69,342.25,48.5l.38,97.19h-19.4V0h24.35l26.63,98.9L373.83,0h19.4V145.69Z"/><path class="cls-1" d="M60.1,346c0,21.87-13.88,30.43-29.86,30.43C13.88,376.4,0,367.46,0,346V256.2c0-21.5,13.69-30.44,30.81-30.44,15.22,0,29.29,7.23,29.29,29.1V279H40.7V258.67c0-10.65-5.32-14.46-10.65-14.46S19.4,248,19.4,258.67V343.5c0,10.65,5.33,14.45,10.65,14.45s10.65-3.8,10.65-14.45V325.24H60.1Z"/><path class="cls-1" d="M86.6,256.2c0-21.5,13.31-30.44,31.19-30.44,18.07,0,28.91,9.13,28.91,30.44V346c0,21.87-13.89,30.43-29.86,30.43-16.36,0-30.24-8.94-30.24-30.43Zm40.7,2.47c0-10.65-5.33-14.46-10.65-14.46S106,248,106,258.67V343.5c0,10.65,5.32,14.45,10.65,14.45s10.65-3.8,10.65-14.45Z"/><path class="cls-1" d="M174.46,373.93V228.24h32.15c14.64,0,27,8.55,27,30.43v24.91c0,21.88-11.22,30.44-25.87,30.44H193.86v59.91Zm39.76-112.79c0-10.65-3.43-14.45-10.65-14.45h-9.71v48.88h9.71c7.22,0,10.65-3.81,10.65-14.46Z"/><path class="cls-1" d="M260,373.93V228.24h19.4V355.48h23.21v18.45Z"/><path class="cls-1" d="M327.84,373.93V228.24H380v18.45H347.24v44.5h31.38v18.45H347.24v45.84H380v18.45Z"/><path class="cls-1" d="M427.69,373.93V323.34l-24.16-95.1h19.59l14.27,66,14.64-66h19.59l-24.53,94.91v50.78Z"/></svg>